#tb 0: 1/25
0,          0,          0,        1,    50700, 0xe7153545
0,          1,          1,        1,    50700, 0x2bc92ece
0,          2,          2,        1,    50700, 0x83c731bb
0,          3,          3,        1,    50700, 0x92f52f19
